<svg width="373" height="93" viewBox="0 0 373 93" fill="none" xmlns="http://www.w3.org/2000/svg">
<g filter="url(#filter0_d_283_10)">
<rect x="5.24316" y="0.5" width="362.637" height="82" rx="41" fill="white" stroke="black"/>
<path d="M48.0156 50H43.0625L43.0938 46.3438H48.0156C49.2448 46.3438 50.2812 46.0677 51.125 45.5156C51.9688 44.9531 52.6042 44.1354 53.0312 43.0625C53.4688 41.9896 53.6875 40.6927 53.6875 39.1719V38.0625C53.6875 36.8958 53.5625 35.8698 53.3125 34.9844C53.0729 34.099 52.7135 33.3542 52.2344 32.75C51.7552 32.1458 51.1667 31.6927 50.4688 31.3906C49.7708 31.0781 48.9688 30.9219 48.0625 30.9219H42.9688V27.25H48.0625C49.5833 27.25 50.974 27.5104 52.2344 28.0312C53.5052 28.5417 54.6042 29.276 55.5312 30.2344C56.4583 31.1927 57.1719 32.3385 57.6719 33.6719C58.1823 34.9948 58.4375 36.4688 58.4375 38.0938V39.1719C58.4375 40.7865 58.1823 42.2604 57.6719 43.5938C57.1719 44.9271 56.4583 46.0729 55.5312 47.0312C54.6146 47.9792 53.5156 48.7135 52.2344 49.2344C50.9635 49.7448 49.5573 50 48.0156 50ZM45.7188 27.25V50H41.0312V27.25H45.7188ZM69.3438 50.3125C68.0312 50.3125 66.8542 50.1042 65.8125 49.6875C64.7708 49.2604 63.8854 48.6719 63.1562 47.9219C62.4375 47.1719 61.8854 46.3021 61.5 45.3125C61.1146 44.3125 60.9219 43.25 60.9219 42.125V41.5C60.9219 40.2188 61.1042 39.0469 61.4688 37.9844C61.8333 36.9219 62.3542 36 63.0312 35.2188C63.7188 34.4375 64.5521 33.8385 65.5312 33.4219C66.5104 32.9948 67.6146 32.7812 68.8438 32.7812C70.0417 32.7812 71.1042 32.9792 72.0312 33.375C72.9583 33.7708 73.7344 34.3333 74.3594 35.0625C74.9948 35.7917 75.474 36.6667 75.7969 37.6875C76.1198 38.6979 76.2812 39.8229 76.2812 41.0625V42.9375H62.8438V39.9375H71.8594V39.5938C71.8594 38.9688 71.7448 38.4115 71.5156 37.9219C71.2969 37.4219 70.9635 37.026 70.5156 36.7344C70.0677 36.4427 69.4948 36.2969 68.7969 36.2969C68.2031 36.2969 67.6927 36.4271 67.2656 36.6875C66.8385 36.9479 66.4896 37.3125 66.2188 37.7812C65.9583 38.25 65.7604 38.8021 65.625 39.4375C65.5 40.0625 65.4375 40.75 65.4375 41.5V42.125C65.4375 42.8021 65.5312 43.4271 65.7188 44C65.9167 44.5729 66.1927 45.0677 66.5469 45.4844C66.9115 45.901 67.349 46.224 67.8594 46.4531C68.3802 46.6823 68.9688 46.7969 69.625 46.7969C70.4375 46.7969 71.1927 46.6406 71.8906 46.3281C72.599 46.0052 73.2083 45.5208 73.7188 44.875L75.9062 47.25C75.5521 47.7604 75.0677 48.25 74.4531 48.7188C73.849 49.1875 73.1198 49.5729 72.2656 49.875C71.4115 50.1667 70.4375 50.3125 69.3438 50.3125ZM83.3438 36.5938V50H78.8281V33.0938H83.0625L83.3438 36.5938ZM82.7188 40.9531H81.4688C81.4688 39.776 81.6094 38.6927 81.8906 37.7031C82.1823 36.7031 82.6042 35.8385 83.1562 35.1094C83.7188 34.3698 84.4115 33.7969 85.2344 33.3906C86.0573 32.9844 87.0104 32.7812 88.0938 32.7812C88.8438 32.7812 89.5312 32.8958 90.1562 33.125C90.7812 33.3438 91.3177 33.6927 91.7656 34.1719C92.224 34.6406 92.5781 35.2552 92.8281 36.0156C93.0781 36.7656 93.2031 37.6667 93.2031 38.7188V50H88.7031V39.2188C88.7031 38.4479 88.599 37.8542 88.3906 37.4375C88.1823 37.0208 87.8854 36.7292 87.5 36.5625C87.125 36.3958 86.6719 36.3125 86.1406 36.3125C85.5573 36.3125 85.0469 36.4323 84.6094 36.6719C84.1823 36.9115 83.8281 37.2448 83.5469 37.6719C83.2656 38.0885 83.0573 38.5781 82.9219 39.1406C82.7865 39.7031 82.7188 40.3073 82.7188 40.9531ZM92.7812 40.4375L91.1719 40.6406C91.1719 39.5365 91.3073 38.5104 91.5781 37.5625C91.8594 36.6146 92.2708 35.7812 92.8125 35.0625C93.3646 34.3438 94.0469 33.7865 94.8594 33.3906C95.6719 32.9844 96.6094 32.7812 97.6719 32.7812C98.4844 32.7812 99.224 32.901 99.8906 33.1406C100.557 33.3698 101.125 33.7396 101.594 34.25C102.073 34.75 102.438 35.4062 102.688 36.2188C102.948 37.0312 103.078 38.026 103.078 39.2031V50H98.5625V39.2031C98.5625 38.4219 98.4583 37.8281 98.25 37.4219C98.0521 37.0052 97.7604 36.7188 97.375 36.5625C97 36.3958 96.5521 36.3125 96.0312 36.3125C95.4896 36.3125 95.0156 36.4219 94.6094 36.6406C94.2031 36.849 93.8646 37.1406 93.5938 37.5156C93.3229 37.8906 93.1198 38.3281 92.9844 38.8281C92.849 39.3177 92.7812 39.8542 92.7812 40.4375ZM115.688 46.1875V38.6562C115.688 38.1146 115.599 37.651 115.422 37.2656C115.245 36.8698 114.969 36.5625 114.594 36.3438C114.229 36.125 113.755 36.0156 113.172 36.0156C112.672 36.0156 112.24 36.1042 111.875 36.2812C111.51 36.4479 111.229 36.6927 111.031 37.0156C110.833 37.3281 110.734 37.6979 110.734 38.125H106.234C106.234 37.4062 106.401 36.724 106.734 36.0781C107.068 35.4323 107.552 34.8646 108.188 34.375C108.823 33.875 109.578 33.4844 110.453 33.2031C111.339 32.9219 112.328 32.7812 113.422 32.7812C114.734 32.7812 115.901 33 116.922 33.4375C117.943 33.875 118.745 34.5312 119.328 35.4062C119.922 36.2812 120.219 37.375 120.219 38.6875V45.9219C120.219 46.849 120.276 47.6094 120.391 48.2031C120.505 48.7865 120.672 49.2969 120.891 49.7344V50H116.344C116.125 49.5417 115.958 48.9688 115.844 48.2812C115.74 47.5833 115.688 46.8854 115.688 46.1875ZM116.281 39.7031L116.312 42.25H113.797C113.203 42.25 112.688 42.3177 112.25 42.4531C111.812 42.5885 111.453 42.7812 111.172 43.0312C110.891 43.2708 110.682 43.5521 110.547 43.875C110.422 44.1979 110.359 44.5521 110.359 44.9375C110.359 45.3229 110.448 45.6719 110.625 45.9844C110.802 46.2865 111.057 46.526 111.391 46.7031C111.724 46.8698 112.115 46.9531 112.562 46.9531C113.24 46.9531 113.828 46.8177 114.328 46.5469C114.828 46.276 115.214 45.9427 115.484 45.5469C115.766 45.151 115.911 44.776 115.922 44.4219L117.109 46.3281C116.943 46.7552 116.714 47.1979 116.422 47.6562C116.141 48.1146 115.781 48.5469 115.344 48.9531C114.906 49.349 114.38 49.6771 113.766 49.9375C113.151 50.1875 112.422 50.3125 111.578 50.3125C110.505 50.3125 109.531 50.099 108.656 49.6719C107.792 49.2344 107.104 48.6354 106.594 47.875C106.094 47.1042 105.844 46.2292 105.844 45.25C105.844 44.3646 106.01 43.5781 106.344 42.8906C106.677 42.2031 107.167 41.625 107.812 41.1562C108.469 40.6771 109.286 40.3177 110.266 40.0781C111.245 39.8281 112.38 39.7031 113.672 39.7031H116.281ZM128.094 36.7031V50H123.594V33.0938H127.812L128.094 36.7031ZM127.438 40.9531H126.219C126.219 39.7031 126.38 38.5781 126.703 37.5781C127.026 36.5677 127.479 35.7083 128.062 35C128.646 34.2812 129.339 33.7344 130.141 33.3594C130.953 32.974 131.859 32.7812 132.859 32.7812C133.651 32.7812 134.375 32.8958 135.031 33.125C135.688 33.3542 136.25 33.7188 136.719 34.2188C137.198 34.7188 137.562 35.3802 137.812 36.2031C138.073 37.026 138.203 38.0312 138.203 39.2188V50H133.672V39.2031C133.672 38.4531 133.568 37.8698 133.359 37.4531C133.151 37.0365 132.844 36.7448 132.438 36.5781C132.042 36.401 131.552 36.3125 130.969 36.3125C130.365 36.3125 129.839 36.4323 129.391 36.6719C128.953 36.9115 128.589 37.2448 128.297 37.6719C128.016 38.0885 127.802 38.5781 127.656 39.1406C127.51 39.7031 127.438 40.3073 127.438 40.9531ZM151.609 46.3125V26H156.141V50H152.062L151.609 46.3125ZM140.922 41.75V41.4219C140.922 40.1302 141.068 38.9583 141.359 37.9062C141.651 36.8438 142.078 35.9323 142.641 35.1719C143.203 34.4115 143.896 33.8229 144.719 33.4062C145.542 32.9896 146.479 32.7812 147.531 32.7812C148.521 32.7812 149.385 32.9896 150.125 33.4062C150.875 33.8229 151.51 34.4167 152.031 35.1875C152.562 35.9479 152.99 36.849 153.312 37.8906C153.635 38.9219 153.87 40.0521 154.016 41.2812V42C153.87 43.1771 153.635 44.2708 153.312 45.2812C152.99 46.2917 152.562 47.1771 152.031 47.9375C151.51 48.6875 150.875 49.2708 150.125 49.6875C149.375 50.1042 148.5 50.3125 147.5 50.3125C146.448 50.3125 145.51 50.099 144.688 49.6719C143.875 49.2448 143.188 48.6458 142.625 47.875C142.073 47.1042 141.651 46.1979 141.359 45.1562C141.068 44.1146 140.922 42.9792 140.922 41.75ZM145.422 41.4219V41.75C145.422 42.4479 145.474 43.099 145.578 43.7031C145.693 44.3073 145.875 44.8438 146.125 45.3125C146.385 45.7708 146.719 46.1302 147.125 46.3906C147.542 46.6406 148.047 46.7656 148.641 46.7656C149.411 46.7656 150.047 46.5938 150.547 46.25C151.047 45.8958 151.427 45.4115 151.688 44.7969C151.958 44.1823 152.115 43.474 152.156 42.6719V40.625C152.125 39.9688 152.031 39.3802 151.875 38.8594C151.729 38.3281 151.51 37.875 151.219 37.5C150.938 37.125 150.583 36.8333 150.156 36.625C149.74 36.4167 149.245 36.3125 148.672 36.3125C148.089 36.3125 147.589 36.4479 147.172 36.7188C146.755 36.9792 146.417 37.3385 146.156 37.7969C145.906 38.2552 145.719 38.7969 145.594 39.4219C145.479 40.0365 145.422 40.7031 145.422 41.4219ZM167.438 50.3125C166.125 50.3125 164.948 50.1042 163.906 49.6875C162.865 49.2604 161.979 48.6719 161.25 47.9219C160.531 47.1719 159.979 46.3021 159.594 45.3125C159.208 44.3125 159.016 43.25 159.016 42.125V41.5C159.016 40.2188 159.198 39.0469 159.562 37.9844C159.927 36.9219 160.448 36 161.125 35.2188C161.812 34.4375 162.646 33.8385 163.625 33.4219C164.604 32.9948 165.708 32.7812 166.938 32.7812C168.135 32.7812 169.198 32.9792 170.125 33.375C171.052 33.7708 171.828 34.3333 172.453 35.0625C173.089 35.7917 173.568 36.6667 173.891 37.6875C174.214 38.6979 174.375 39.8229 174.375 41.0625V42.9375H160.938V39.9375H169.953V39.5938C169.953 38.9688 169.839 38.4115 169.609 37.9219C169.391 37.4219 169.057 37.026 168.609 36.7344C168.161 36.4427 167.589 36.2969 166.891 36.2969C166.297 36.2969 165.786 36.4271 165.359 36.6875C164.932 36.9479 164.583 37.3125 164.312 37.7812C164.052 38.25 163.854 38.8021 163.719 39.4375C163.594 40.0625 163.531 40.75 163.531 41.5V42.125C163.531 42.8021 163.625 43.4271 163.812 44C164.01 44.5729 164.286 45.0677 164.641 45.4844C165.005 45.901 165.443 46.224 165.953 46.4531C166.474 46.6823 167.062 46.7969 167.719 46.7969C168.531 46.7969 169.286 46.6406 169.984 46.3281C170.693 46.0052 171.302 45.5208 171.812 44.875L174 47.25C173.646 47.7604 173.161 48.25 172.547 48.7188C171.943 49.1875 171.214 49.5729 170.359 49.875C169.505 50.1667 168.531 50.3125 167.438 50.3125ZM181.438 36.7812V50H176.938V33.0938H181.172L181.438 36.7812ZM186.531 32.9844L186.453 37.1562C186.234 37.125 185.969 37.099 185.656 37.0781C185.354 37.0469 185.078 37.0312 184.828 37.0312C184.193 37.0312 183.641 37.1146 183.172 37.2812C182.714 37.4375 182.328 37.6719 182.016 37.9844C181.714 38.2969 181.484 38.6771 181.328 39.125C181.182 39.5729 181.099 40.0833 181.078 40.6562L180.172 40.375C180.172 39.2812 180.281 38.276 180.5 37.3594C180.719 36.4323 181.036 35.625 181.453 34.9375C181.88 34.25 182.401 33.7188 183.016 33.3438C183.63 32.9688 184.333 32.7812 185.125 32.7812C185.375 32.7812 185.63 32.8021 185.891 32.8438C186.151 32.875 186.365 32.9219 186.531 32.9844ZM206.625 45.9531V33.0938H211.125V50H206.891L206.625 45.9531ZM207.125 42.4844L208.453 42.4531C208.453 43.5781 208.323 44.625 208.062 45.5938C207.802 46.5521 207.411 47.3854 206.891 48.0938C206.37 48.7917 205.714 49.3385 204.922 49.7344C204.13 50.1198 203.198 50.3125 202.125 50.3125C201.302 50.3125 200.542 50.1979 199.844 49.9688C199.156 49.7292 198.562 49.3594 198.062 48.8594C197.573 48.349 197.188 47.6979 196.906 46.9062C196.635 46.1042 196.5 45.1406 196.5 44.0156V33.0938H201V44.0469C201 44.5469 201.057 44.9688 201.172 45.3125C201.297 45.6562 201.469 45.9375 201.688 46.1562C201.906 46.375 202.161 46.5312 202.453 46.625C202.755 46.7188 203.089 46.7656 203.453 46.7656C204.38 46.7656 205.109 46.5781 205.641 46.2031C206.182 45.8281 206.562 45.3177 206.781 44.6719C207.01 44.0156 207.125 43.2865 207.125 42.4844ZM218.969 36.7031V50H214.469V33.0938H218.688L218.969 36.7031ZM218.312 40.9531H217.094C217.094 39.7031 217.255 38.5781 217.578 37.5781C217.901 36.5677 218.354 35.7083 218.938 35C219.521 34.2812 220.214 33.7344 221.016 33.3594C221.828 32.974 222.734 32.7812 223.734 32.7812C224.526 32.7812 225.25 32.8958 225.906 33.125C226.562 33.3542 227.125 33.7188 227.594 34.2188C228.073 34.7188 228.438 35.3802 228.688 36.2031C228.948 37.026 229.078 38.0312 229.078 39.2188V50H224.547V39.2031C224.547 38.4531 224.443 37.8698 224.234 37.4531C224.026 37.0365 223.719 36.7448 223.312 36.5781C222.917 36.401 222.427 36.3125 221.844 36.3125C221.24 36.3125 220.714 36.4323 220.266 36.6719C219.828 36.9115 219.464 37.2448 219.172 37.6719C218.891 38.0885 218.677 38.5781 218.531 39.1406C218.385 39.7031 218.312 40.3073 218.312 40.9531ZM250.453 46.3125V26H254.984V50H250.906L250.453 46.3125ZM239.766 41.75V41.4219C239.766 40.1302 239.911 38.9583 240.203 37.9062C240.495 36.8438 240.922 35.9323 241.484 35.1719C242.047 34.4115 242.74 33.8229 243.562 33.4062C244.385 32.9896 245.323 32.7812 246.375 32.7812C247.365 32.7812 248.229 32.9896 248.969 33.4062C249.719 33.8229 250.354 34.4167 250.875 35.1875C251.406 35.9479 251.833 36.849 252.156 37.8906C252.479 38.9219 252.714 40.0521 252.859 41.2812V42C252.714 43.1771 252.479 44.2708 252.156 45.2812C251.833 46.2917 251.406 47.1771 250.875 47.9375C250.354 48.6875 249.719 49.2708 248.969 49.6875C248.219 50.1042 247.344 50.3125 246.344 50.3125C245.292 50.3125 244.354 50.099 243.531 49.6719C242.719 49.2448 242.031 48.6458 241.469 47.875C240.917 47.1042 240.495 46.1979 240.203 45.1562C239.911 44.1146 239.766 42.9792 239.766 41.75ZM244.266 41.4219V41.75C244.266 42.4479 244.318 43.099 244.422 43.7031C244.536 44.3073 244.719 44.8438 244.969 45.3125C245.229 45.7708 245.562 46.1302 245.969 46.3906C246.385 46.6406 246.891 46.7656 247.484 46.7656C248.255 46.7656 248.891 46.5938 249.391 46.25C249.891 45.8958 250.271 45.4115 250.531 44.7969C250.802 44.1823 250.958 43.474 251 42.6719V40.625C250.969 39.9688 250.875 39.3802 250.719 38.8594C250.573 38.3281 250.354 37.875 250.062 37.5C249.781 37.125 249.427 36.8333 249 36.625C248.583 36.4167 248.089 36.3125 247.516 36.3125C246.932 36.3125 246.432 36.4479 246.016 36.7188C245.599 36.9792 245.26 37.3385 245 37.7969C244.75 38.2552 244.562 38.7969 244.438 39.4219C244.323 40.0365 244.266 40.7031 244.266 41.4219ZM266.281 50.3125C264.969 50.3125 263.792 50.1042 262.75 49.6875C261.708 49.2604 260.823 48.6719 260.094 47.9219C259.375 47.1719 258.823 46.3021 258.438 45.3125C258.052 44.3125 257.859 43.25 257.859 42.125V41.5C257.859 40.2188 258.042 39.0469 258.406 37.9844C258.771 36.9219 259.292 36 259.969 35.2188C260.656 34.4375 261.49 33.8385 262.469 33.4219C263.448 32.9948 264.552 32.7812 265.781 32.7812C266.979 32.7812 268.042 32.9792 268.969 33.375C269.896 33.7708 270.672 34.3333 271.297 35.0625C271.932 35.7917 272.411 36.6667 272.734 37.6875C273.057 38.6979 273.219 39.8229 273.219 41.0625V42.9375H259.781V39.9375H268.797V39.5938C268.797 38.9688 268.682 38.4115 268.453 37.9219C268.234 37.4219 267.901 37.026 267.453 36.7344C267.005 36.4427 266.432 36.2969 265.734 36.2969C265.141 36.2969 264.63 36.4271 264.203 36.6875C263.776 36.9479 263.427 37.3125 263.156 37.7812C262.896 38.25 262.698 38.8021 262.562 39.4375C262.438 40.0625 262.375 40.75 262.375 41.5V42.125C262.375 42.8021 262.469 43.4271 262.656 44C262.854 44.5729 263.13 45.0677 263.484 45.4844C263.849 45.901 264.286 46.224 264.797 46.4531C265.318 46.6823 265.906 46.7969 266.562 46.7969C267.375 46.7969 268.13 46.6406 268.828 46.3281C269.536 46.0052 270.146 45.5208 270.656 44.875L272.844 47.25C272.49 47.7604 272.005 48.25 271.391 48.7188C270.786 49.1875 270.057 49.5729 269.203 49.875C268.349 50.1667 267.375 50.3125 266.281 50.3125ZM281.312 46.7188L285.062 33.0938H289.766L284.062 50H281.219L281.312 46.7188ZM278.734 33.0938L282.5 46.7344L282.578 50H279.719L274.016 33.0938H278.734ZM296.531 33.0938V50H292.016V33.0938H296.531ZM291.734 28.6875C291.734 28.0312 291.964 27.4896 292.422 27.0625C292.88 26.6354 293.495 26.4219 294.266 26.4219C295.026 26.4219 295.635 26.6354 296.094 27.0625C296.562 27.4896 296.797 28.0312 296.797 28.6875C296.797 29.3438 296.562 29.8854 296.094 30.3125C295.635 30.7396 295.026 30.9531 294.266 30.9531C293.495 30.9531 292.88 30.7396 292.422 30.3125C291.964 29.8854 291.734 29.3438 291.734 28.6875ZM309.391 45.3281C309.391 45.0052 309.297 44.7135 309.109 44.4531C308.922 44.1927 308.573 43.9531 308.062 43.7344C307.562 43.5052 306.839 43.2969 305.891 43.1094C305.036 42.9219 304.24 42.6875 303.5 42.4062C302.771 42.1146 302.135 41.7656 301.594 41.3594C301.062 40.9531 300.646 40.474 300.344 39.9219C300.042 39.3594 299.891 38.7188 299.891 38C299.891 37.2917 300.042 36.625 300.344 36C300.656 35.375 301.099 34.8229 301.672 34.3438C302.255 33.8542 302.964 33.474 303.797 33.2031C304.641 32.9219 305.589 32.7812 306.641 32.7812C308.109 32.7812 309.37 33.0156 310.422 33.4844C311.484 33.9531 312.297 34.599 312.859 35.4219C313.432 36.2344 313.719 37.1615 313.719 38.2031H309.219C309.219 37.7656 309.125 37.375 308.938 37.0312C308.76 36.6771 308.479 36.401 308.094 36.2031C307.719 35.9948 307.229 35.8906 306.625 35.8906C306.125 35.8906 305.693 35.9792 305.328 36.1562C304.964 36.3229 304.682 36.5521 304.484 36.8438C304.297 37.125 304.203 37.4375 304.203 37.7812C304.203 38.0417 304.255 38.276 304.359 38.4844C304.474 38.6823 304.656 38.8646 304.906 39.0312C305.156 39.1979 305.479 39.3542 305.875 39.5C306.281 39.6354 306.781 39.7604 307.375 39.875C308.594 40.125 309.682 40.4531 310.641 40.8594C311.599 41.2552 312.359 41.7969 312.922 42.4844C313.484 43.1615 313.766 44.0521 313.766 45.1562C313.766 45.9062 313.599 46.5938 313.266 47.2188C312.932 47.8438 312.453 48.3906 311.828 48.8594C311.203 49.3177 310.453 49.6771 309.578 49.9375C308.714 50.1875 307.74 50.3125 306.656 50.3125C305.083 50.3125 303.75 50.0312 302.656 49.4688C301.573 48.9062 300.75 48.1927 300.188 47.3281C299.635 46.4531 299.359 45.5573 299.359 44.6406H303.625C303.646 45.2552 303.802 45.75 304.094 46.125C304.396 46.5 304.776 46.7708 305.234 46.9375C305.703 47.1042 306.208 47.1875 306.75 47.1875C307.333 47.1875 307.818 47.1094 308.203 46.9531C308.589 46.7865 308.88 46.5677 309.078 46.2969C309.286 46.0156 309.391 45.6927 309.391 45.3281Z" fill="black"/>
<line y1="-0.5" x2="65.7797" y2="-0.5" transform="matrix(0.592296 0.80572 -0.805155 0.593065 326.422 1)" stroke="black"/>
<path d="M294.953 0.5L349.801 76.7041" stroke="black"/>
<path d="M324.783 19.4669L321.184 22.1815C320.907 22.1686 320.558 22.0898 320.136 21.9449C319.718 21.7969 319.263 21.5431 318.771 21.1837C318.278 20.8243 317.783 20.3138 317.285 19.6522C316.843 19.0655 316.537 18.4587 316.364 17.8317C316.197 17.2016 316.168 16.5707 316.279 15.9389C316.393 15.3112 316.65 14.6999 317.05 14.1049C317.454 13.5068 318.005 12.9443 318.703 12.4173L319.271 11.9892C319.97 11.4623 320.658 11.0829 321.338 10.8509C322.02 10.6231 322.676 10.5366 323.304 10.5914C323.932 10.6461 324.519 10.8328 325.065 11.1515C325.611 11.4701 326.099 11.9144 326.528 12.4845C327.123 13.2751 327.483 14.0215 327.607 14.7236C327.736 15.4225 327.674 16.0761 327.421 16.6843C327.176 17.2935 326.785 17.8489 326.25 18.3504L324.883 16.5341C325.156 16.2562 325.358 15.9665 325.49 15.665C325.622 15.3635 325.661 15.0435 325.608 14.7049C325.559 14.3705 325.391 14.014 325.106 13.6353C324.871 13.3232 324.597 13.0931 324.283 12.9448C323.977 12.7975 323.638 12.7332 323.268 12.7518C322.897 12.7704 322.498 12.8725 322.07 13.058C321.643 13.2435 321.19 13.5166 320.712 13.8773L320.132 14.3148C319.658 14.6723 319.272 15.0349 318.975 15.4024C318.682 15.7669 318.479 16.1326 318.364 16.4997C318.256 16.8679 318.24 17.2321 318.316 17.5925C318.392 17.9529 318.563 18.31 318.829 18.6637C319.052 18.9591 319.261 19.1858 319.458 19.3437C319.659 19.5058 319.84 19.6206 320.001 19.6879C320.17 19.7563 320.313 19.7987 320.429 19.8151L322.039 18.6013L320.751 16.8911L322.086 15.8843L324.783 19.4669ZM327.719 22.2627L322.442 26.2429L321.089 24.4453L327.837 19.3548L329.111 21.0463L327.719 22.2627ZM330.766 23.1543L329.077 24.3792C329.024 24.2824 328.955 24.1685 328.869 24.0373C328.79 23.9073 328.714 23.7923 328.639 23.6924C328.447 23.4386 328.248 23.2432 328.041 23.1061C327.84 22.9701 327.631 22.8867 327.412 22.8559C327.197 22.8294 326.976 22.8523 326.75 22.9247C326.528 23.0014 326.299 23.1217 326.064 23.2859L325.904 22.8392C326.34 22.5099 326.774 22.2509 327.206 22.0623C327.642 21.8705 328.06 21.7544 328.459 21.7138C328.862 21.6774 329.231 21.7255 329.565 21.8581C329.9 21.9907 330.186 22.2151 330.424 22.5313C330.499 22.6312 330.568 22.7394 330.63 22.856C330.695 22.9694 330.741 23.0689 330.766 23.1543ZM328.719 31.4114L331.725 29.1438C331.942 28.9807 332.1 28.8057 332.201 28.619C332.305 28.429 332.345 28.2262 332.32 28.0106C332.297 27.7991 332.198 27.5768 332.023 27.3438C331.873 27.1441 331.707 26.998 331.527 26.9057C331.351 26.8103 331.168 26.7716 330.98 26.7898C330.796 26.8048 330.618 26.8766 330.448 27.0052L329.095 25.2077C329.382 24.9912 329.704 24.8524 330.062 24.7911C330.42 24.7298 330.792 24.7523 331.179 24.8587C331.57 24.962 331.953 25.1461 332.328 25.4109C332.707 25.6799 333.06 26.0329 333.389 26.4698C333.784 26.9941 334.047 27.526 334.18 28.0655C334.312 28.605 334.291 29.123 334.117 29.6195C333.947 30.1201 333.599 30.5681 333.075 30.9633L330.188 33.1415C329.818 33.4207 329.531 33.6725 329.329 33.8971C329.13 34.1185 328.977 34.3387 328.868 34.5579L328.762 34.6378L327.395 32.8215C327.512 32.5961 327.69 32.3571 327.93 32.1043C328.178 31.8525 328.44 31.6216 328.719 31.4114ZM331.486 29.6962L330.479 30.4755L329.722 29.4706C329.544 29.2334 329.362 29.0479 329.176 28.9139C328.99 28.7799 328.805 28.6943 328.621 28.6573C328.441 28.6171 328.266 28.6185 328.096 28.6617C327.93 28.709 327.77 28.7906 327.616 28.9067C327.462 29.0227 327.349 29.1632 327.278 29.328C327.21 29.4897 327.192 29.6638 327.221 29.8503C327.255 30.0336 327.339 30.2147 327.474 30.3936C327.677 30.6641 327.908 30.8584 328.167 30.9766C328.425 31.0948 328.674 31.1484 328.914 31.1374C329.156 31.1306 329.35 31.0759 329.494 30.9734L329.091 32.0218C328.87 32.0838 328.624 32.1255 328.354 32.147C328.086 32.1727 327.805 32.1593 327.512 32.1069C327.222 32.0513 326.933 31.9399 326.644 31.7728C326.36 31.6026 326.09 31.349 325.837 31.0119C325.514 30.5833 325.306 30.13 325.214 29.6519C325.128 29.1748 325.161 28.7198 325.311 28.2869C325.468 27.8551 325.742 27.4918 326.133 27.197C326.487 26.9304 326.851 26.7601 327.225 26.6863C327.6 26.6124 327.978 26.6339 328.359 26.7508C328.748 26.8686 329.137 27.0871 329.527 27.4061C329.922 27.7219 330.313 28.1379 330.701 28.6538L331.486 29.6962ZM338.842 33.9727L337.569 34.9324L334.609 31.0002L335.882 30.0405L338.842 33.9727ZM338.28 29.758L339.633 31.5556L333.253 36.3685C333.057 36.5159 332.926 36.6538 332.86 36.7821C332.797 36.9146 332.783 37.0486 332.82 37.1839C332.861 37.3162 332.941 37.4614 333.06 37.6195C333.145 37.7319 333.224 37.8286 333.298 37.9097C333.379 37.9918 333.45 38.0594 333.509 38.1124L332.192 39.116C332.026 38.9997 331.861 38.8631 331.697 38.7061C331.534 38.5491 331.37 38.3625 331.207 38.1461C330.91 37.7508 330.714 37.3568 330.621 36.9641C330.534 36.5725 330.577 36.1878 330.749 35.8102C330.921 35.4325 331.244 35.0649 331.718 34.7073L338.28 29.758ZM337.486 42.8629L342.62 38.9909L343.973 40.7885L337.224 45.8789L335.951 44.1875L337.486 42.8629ZM339.021 42.0182L339.433 42.5393C338.984 42.878 338.527 43.1412 338.062 43.3289C337.601 43.5134 337.151 43.6083 336.712 43.6135C336.277 43.6156 335.861 43.5181 335.465 43.3211C335.073 43.1209 334.716 42.8065 334.393 42.3779C334.146 42.0492 333.963 41.7109 333.844 41.3631C333.733 41.0163 333.702 40.6678 333.751 40.3175C333.808 39.9683 333.952 39.6183 334.183 39.2676C334.422 38.9179 334.766 38.5737 335.215 38.2349L339.575 34.9464L340.928 36.7439L336.556 40.0419C336.356 40.1925 336.205 40.3424 336.102 40.4916C336.003 40.6451 335.942 40.7984 335.921 40.9517C335.899 41.1049 335.913 41.2539 335.964 41.3987C336.017 41.5476 336.099 41.6948 336.208 41.8405C336.487 42.2108 336.781 42.4456 337.091 42.5449C337.403 42.6484 337.721 42.6466 338.045 42.5395C338.376 42.4334 338.701 42.2597 339.021 42.0182ZM346.435 44.0591L339.686 49.1495L338.328 47.3457L345.077 42.2553L346.435 44.0591ZM346.751 40.8162C347.013 40.6186 347.298 40.547 347.607 40.6015C347.915 40.656 348.185 40.8372 348.417 41.1452C348.645 41.4489 348.743 41.7566 348.711 42.0683C348.681 42.3842 348.536 42.6409 348.274 42.8385C348.012 43.0361 347.725 43.1055 347.413 43.0469C347.105 42.9924 346.837 42.8133 346.608 42.5095C346.376 42.2016 346.277 41.8918 346.309 41.5801C346.342 41.2684 346.489 41.0138 346.751 40.8162ZM350.043 48.8526L348.771 49.8124L345.811 45.8802L347.083 44.9204L350.043 48.8526ZM349.482 44.638L350.835 46.4355L344.454 51.2484C344.259 51.3958 344.128 51.5337 344.062 51.6621C343.998 51.7946 343.985 51.9285 344.022 52.0639C344.063 52.1962 344.143 52.3414 344.262 52.4995C344.346 52.6118 344.426 52.7086 344.5 52.7897C344.581 52.8718 344.652 52.9394 344.711 52.9924L343.393 53.996C343.228 53.8797 343.063 53.743 342.899 53.5861C342.735 53.4291 342.572 53.2424 342.409 53.026C342.111 52.6307 341.916 52.2368 341.822 51.8441C341.736 51.4525 341.779 51.0678 341.951 50.6901C342.123 50.3125 342.446 49.9448 342.92 49.5873L349.482 44.638Z" fill="#FA0404"/>
</g>
<defs>
<filter id="filter0_d_283_10" x="0.743164" y="0" width="371.637" height="93" filterUnits="userSpaceOnUse" color-interpolation-filters="sRGB">
<feFlood flood-opacity="0" result="BackgroundImageFix"/>
<feColorMatrix in="SourceAlpha" type="matrix" values="0 0 0 0 0 0 0 0 0 0 0 0 0 0 0 0 0 0 127 0" result="hardAlpha"/>
<feOffset dy="6"/>
<feGaussianBlur stdDeviation="2"/>
<feComposite in2="hardAlpha" operator="out"/>
<feColorMatrix type="matrix" values="0 0 0 0 0 0 0 0 0 0 0 0 0 0 0 0 0 0 0.25 0"/>
<feBlend mode="normal" in2="BackgroundImageFix" result="effect1_dropShadow_283_10"/>
<feBlend mode="normal" in="SourceGraphic" in2="effect1_dropShadow_283_10" result="shape"/>
</filter>
</defs>
</svg>
